<svg version="1.1" id="Layer_1" xmlns="http://www.w3.org/2000/svg" xmlns:xlink="http://www.w3.org/1999/xlink" x="0px" y="0px"
	 width="100%" viewBox="0 0 496 496" enable-background="new 0 0 496 496" xml:space="preserve">
<path fill="#000000" opacity="1.000000" stroke="none" 
	d="
M86.985825,267.993835 
	C83.453316,271.787506 80.116692,275.278809 76.870285,278.852051 
	C74.121071,281.878052 71.174660,281.829987 67.950676,279.732941 
	C66.344688,278.688324 64.868591,277.526337 63.097595,276.621094 
	C60.064667,275.070770 61.940727,272.739258 63.598698,270.971191 
	C71.343399,262.712128 79.078926,254.444138 86.876976,246.235626 
	C91.119141,241.770187 95.316917,237.240662 99.839661,233.070816 
	C103.270302,229.907867 104.295731,227.125305 100.368599,223.732101 
	C99.509392,222.989716 98.916443,221.939194 97.685394,220.376038 
	C84.762054,230.481262 71.944397,240.503845 59.087765,250.556915 
	C55.990135,246.817169 58.328106,245.335648 60.263416,243.785858 
	C70.013878,235.977753 79.746437,228.146805 89.547287,220.402328 
	C97.175148,214.374954 97.534096,213.117828 93.412224,203.039795 
	C81.687881,208.993317 71.256660,217.224411 59.165951,222.819992 
	C57.732311,219.055191 59.796856,217.716507 62.002655,216.365829 
	C70.237968,211.323074 78.377769,206.120560 86.682190,201.195129 
	C110.402527,187.126358 135.898712,177.562164 162.925812,172.329910 
	C171.768814,170.617981 180.854858,171.223923 189.602020,173.959778 
	C197.862595,176.543411 206.127228,179.087692 214.624435,180.812592 
	C219.048569,181.710663 221.738266,185.516068 225.538177,187.562775 
	C232.866196,191.509781 239.820068,196.115753 245.822128,201.997086 
	C248.345490,204.469711 250.417175,207.115860 248.152390,210.737350 
	C245.990372,214.194534 242.555496,214.719879 238.901443,213.922775 
	C235.791580,213.244385 232.903870,211.910919 230.310898,210.025024 
	C227.865540,208.246506 225.223602,206.904572 221.621918,205.930771 
	C222.310425,207.974655 222.570160,209.767014 223.445633,211.177063 
	C228.711990,219.659271 227.097366,229.506104 228.941711,238.654510 
	C229.741409,242.621231 226.119415,245.156754 222.075378,243.834122 
	C219.628357,243.033829 217.561279,242.656342 214.941452,243.536896 
	C211.101425,244.827560 207.381699,241.765701 205.962265,236.263397 
	C204.602997,230.994293 204.271317,225.414780 200.694519,220.917908 
	C200.212570,220.311981 199.757706,219.684509 198.884903,218.531418 
	C197.663925,222.378952 199.467300,225.248978 199.858521,228.212891 
	C200.488937,232.989075 201.739761,237.691864 202.223480,242.476715 
	C202.787399,248.054886 199.986649,250.191437 194.645844,248.702667 
	C193.708267,248.441315 192.807358,247.585999 191.832031,248.209152 
	C185.912277,251.991211 180.475235,249.236038 175.320709,246.647217 
	C166.875046,242.405426 157.836151,240.351593 148.750595,238.241135 
	C144.448914,237.241898 140.157349,237.390991 135.839706,237.378296 
	C132.323792,237.367950 128.638885,237.579285 125.607582,235.690689 
	C121.200317,232.944778 118.410889,234.748550 115.394203,237.993057 
	C106.097336,247.992004 96.625000,257.827789 86.985825,267.993835 
M106.110336,215.091415 
	C106.688431,216.027924 106.795860,217.370560 108.484833,217.626617 
	C108.672287,217.058319 108.922371,216.490051 109.046509,215.895462 
	C111.073700,206.185440 116.758072,202.276550 126.515793,203.494797 
	C131.510330,204.118347 136.221680,205.727524 141.048706,206.927170 
	C150.883255,209.371262 154.908829,207.812164 160.507584,199.257523 
	C162.132553,196.774643 163.433182,194.419876 161.382706,191.519043 
	C159.248520,188.499756 156.466019,187.811188 153.065903,188.826935 
	C138.904480,193.057373 124.618965,196.925308 111.130966,203.126984 
	C105.083519,205.907562 104.238144,207.750351 106.110336,215.091415 
M165.090210,176.560196 
	C161.026108,177.400070 156.961823,178.239136 152.897919,179.079941 
	C136.846741,182.400803 122.182709,189.758331 106.783722,194.978531 
	C104.857986,195.631348 101.995293,196.546295 103.070175,199.265594 
	C104.027458,201.687378 106.468842,200.460754 108.310707,199.703125 
	C125.072075,192.808487 142.064850,186.675583 160.063187,183.797913 
	C160.845398,183.672852 161.708954,183.322235 162.291611,182.803650 
	C165.837234,179.647858 169.910263,177.665543 174.630371,176.445404 
	C171.740707,176.445404 168.851028,176.445404 165.090210,176.560196 
M124.506416,207.379745 
	C122.281273,207.230545 120.219673,207.749313 118.354012,208.963638 
	C114.618774,211.394852 113.189766,215.401337 115.476151,218.188446 
	C118.876724,222.333755 123.419685,224.577179 128.873352,224.751556 
	C130.096725,224.790665 131.253906,224.610428 131.814468,223.365356 
	C134.169876,218.133698 137.856842,214.456757 144.035431,213.427200 
	C137.775391,210.323975 131.623489,208.621964 124.506416,207.379745 
M173.605606,215.989273 
	C169.730164,217.159760 165.854736,218.330231 160.919800,219.820694 
	C169.324509,226.252090 178.916595,227.011383 187.351517,231.213501 
	C187.203568,221.825546 180.337326,219.255249 173.605606,215.989273 
M143.971344,218.325790 
	C140.781265,219.262421 138.098923,220.840668 137.355515,224.364868 
	C136.591873,227.985001 139.126587,231.606064 142.637589,232.181442 
	C146.570297,232.825928 150.841248,228.039154 151.119202,222.313141 
	C151.350952,217.538803 147.494934,218.650223 143.971344,218.325790 
M154.074524,233.613434 
	C157.214264,235.632370 161.030960,235.568939 164.357239,236.919479 
	C168.821304,238.732025 170.024933,235.665344 170.986832,232.652847 
	C172.110199,229.134720 168.815262,229.236908 166.884415,228.538727 
	C165.042282,227.872635 163.039703,227.648026 161.105774,227.238358 
	C154.926834,225.929413 154.303345,226.415375 154.074524,233.613434 
M173.739746,238.000015 
	C173.446655,238.801865 173.183838,239.772263 173.921036,240.304459 
	C177.742142,243.063110 181.996384,244.823303 186.753906,244.815842 
	C188.985748,244.812332 189.803986,243.126419 189.694901,241.027191 
	C189.541534,238.075241 184.150864,234.194641 179.280258,232.967896 
	C175.163818,231.931107 175.292053,235.343369 173.739746,238.000015 
M207.092712,186.331909 
	C208.844269,183.151489 205.649033,183.474442 204.434174,183.073837 
	C198.748734,181.199112 192.973480,179.589798 187.202896,177.984222 
	C185.394974,177.481201 182.838013,176.029144 181.978363,178.614853 
	C181.080490,181.315552 183.429962,182.778625 185.860947,183.408127 
	C191.340134,184.826920 196.837265,186.179764 202.346985,187.474915 
	C203.808105,187.818375 205.340729,187.851776 207.092712,186.331909 
M215.911850,194.975662 
	C216.271332,201.179794 222.125610,200.633896 225.697433,202.139816 
	C228.698303,203.404984 229.596359,199.162659 231.387543,197.157379 
	C229.051834,194.526260 226.299515,193.043777 223.623840,191.456131 
	C219.922882,189.260147 217.362671,190.083206 215.911850,194.975662 
M212.813171,205.493042 
	C207.665924,211.232620 214.558731,214.155045 215.954727,218.309250 
	C216.831573,220.918549 218.920822,222.705521 222.714355,220.761673 
	C220.407089,215.420258 218.185547,210.140671 215.836838,204.918274 
	C215.072235,203.218201 214.056442,203.993546 212.813171,205.493042 
M170.805908,193.794662 
	C176.479996,195.733276 181.520020,192.597260 180.423904,187.702698 
	C179.876114,185.256561 178.756836,182.984467 175.848663,182.434799 
	C173.058975,181.907516 170.945023,183.121536 169.485199,185.306198 
	C167.633102,188.077942 167.648026,190.869675 170.805908,193.794662 
M189.412430,192.804520 
	C194.390686,193.065536 199.305725,195.519104 204.428360,193.435181 
	C198.474686,189.361542 191.632538,189.337524 185.015152,187.682388 
	C184.001099,191.762009 186.430481,192.156464 189.412430,192.804520 
M242.874191,205.317047 
	C240.825485,202.880981 238.407654,200.987839 235.316025,199.867584 
	C233.704483,201.933609 230.917358,203.565613 233.372849,206.318039 
	C235.698212,208.924606 238.923401,210.144836 242.415802,209.364227 
	C244.267258,208.950409 244.431061,207.361481 242.874191,205.317047 
M220.153824,235.128464 
	C220.794037,236.800949 221.232880,238.696274 224.181595,238.367477 
	C223.937088,234.197311 223.303238,230.244461 221.698776,225.900528 
	C217.754959,228.744400 219.370163,231.656494 220.153824,235.128464 
M195.694870,228.372009 
	C195.137131,225.587372 195.071793,222.630524 192.870834,219.647858 
	C190.052292,224.040985 191.970718,227.649872 193.715088,230.650543 
	C194.765854,232.458084 195.605255,230.467010 195.694870,228.372009 
M163.394791,208.204758 
	C165.076096,204.989197 167.559845,202.397385 170.682083,199.515686 
	C164.024414,201.677277 160.253540,207.921371 162.296295,212.943069 
	C162.611618,211.421661 162.873810,210.156631 163.394791,208.204758 
M190.370621,208.167892 
	C189.595856,208.041733 188.261139,207.744202 189.124680,209.094467 
	C190.083115,210.593140 191.568970,211.803391 192.980469,212.947647 
	C194.064011,213.826080 195.454254,215.317200 196.786621,213.509399 
	C198.235474,211.543549 196.182587,210.975494 194.990921,210.286072 
	C193.700043,209.539261 192.293549,208.992310 190.370621,208.167892 
M209.159607,199.622925 
	C206.642471,198.956329 204.141068,199.017670 201.209122,199.532684 
	C203.054611,202.451996 205.454437,202.978928 208.138809,202.682068 
	C209.664490,202.513367 210.608337,201.768295 209.159607,199.622925 
M212.226715,230.811386 
	C211.712967,230.162079 210.735641,228.483429 210.393661,230.024796 
	C209.697357,233.163177 209.268463,236.787613 213.603790,238.806564 
	C214.347351,235.890869 213.129913,233.697113 212.226715,230.811386 
M213.483887,190.186661 
	C213.868668,188.971588 215.781097,188.118729 214.434952,186.436859 
	C210.167557,188.798767 209.803665,189.572083 211.062714,194.185822 
	C211.857117,192.869385 212.498505,191.806503 213.483887,190.186661 
M86.783775,255.601318 
	C89.605850,252.956360 92.427925,250.311386 95.250000,247.666412 
	C95.139000,247.572418 95.028008,247.478424 94.917015,247.384430 
	C91.720589,250.538177 88.524155,253.691925 85.814766,256.365143 
	C85.617210,256.498871 86.004585,256.236664 86.783775,255.601318 
M203.647186,217.215942 
	C205.176193,219.327377 206.020035,222.006882 208.625183,223.252304 
	C207.178116,219.961456 205.689819,216.724503 202.544495,214.507675 
	C202.819748,215.223892 203.095001,215.940109 203.647186,217.215942 
M131.573822,232.431244 
	C132.052094,232.384811 132.662354,232.449799 132.323334,231.647110 
	C132.269623,231.519913 132.071625,231.420914 131.920029,231.372650 
	C128.837311,230.391022 125.751617,229.418686 122.666519,228.444504 
	C125.053284,230.782898 128.090332,231.426346 131.573822,232.431244 
z"/>
<path fill="#000000" opacity="1.000000" stroke="none" 
	d="
M233.907730,357.040955 
	C234.684479,357.505463 235.144516,357.754669 235.626923,357.810486 
	C243.680695,358.741913 244.294998,359.661102 243.341919,368.138550 
	C243.080353,370.465271 242.091568,371.347717 239.881744,371.343994 
	C224.896362,371.318634 209.910843,371.289154 194.925613,371.339935 
	C191.474152,371.351624 190.721954,368.730164 190.330109,366.405975 
	C189.423828,361.030548 186.213013,359.344543 181.212708,359.483887 
	C176.222504,359.622986 171.224411,359.486023 166.229828,359.456970 
	C164.261627,359.445526 162.823975,359.912231 161.970016,362.066589 
	C160.769928,365.094238 161.001907,369.657623 157.886017,370.767395 
	C153.435806,372.352386 148.400940,371.546570 143.767975,371.029724 
	C142.555359,369.262146 143.561768,367.910431 144.045319,366.587921 
	C149.928787,350.496796 155.828934,334.411621 161.781342,318.345886 
	C164.326508,311.476379 169.193634,307.815338 175.430008,307.874878 
	C182.104614,307.938599 186.642090,311.150574 189.244019,318.078857 
	C194.854568,333.018433 200.331772,348.008057 206.186737,363.230377 
	C205.982010,358.699677 208.461823,357.623108 212.139679,357.965240 
	C215.498962,358.277710 216.934311,356.838165 216.873154,353.340698 
	C216.718857,344.518433 216.705002,335.689697 216.866501,326.867798 
	C216.930969,323.345978 215.540329,321.893799 212.152512,322.342438 
	C205.401215,323.236542 206.944763,318.414337 206.605057,314.626862 
	C206.211426,310.237885 207.976822,308.717285 212.302765,308.825500 
	C220.955582,309.041962 229.625229,309.089935 238.273544,308.791290 
	C243.327133,308.616760 243.529755,311.476807 243.345016,315.137085 
	C243.167557,318.653595 244.360779,323.078491 238.261185,322.330048 
	C233.960495,321.802307 232.729645,323.906036 232.922684,327.863647 
	C233.391693,337.479462 232.168594,347.138062 233.907730,357.040955 
M171.942749,346.649231 
	C175.661819,346.360413 179.485657,347.331268 183.757278,345.751495 
	C181.263702,338.029327 178.844604,330.537811 176.425522,323.046265 
	C175.906921,323.093170 175.388336,323.140076 174.869751,323.186951 
	C172.579163,329.904114 170.322922,336.633240 167.983185,343.333191 
	C166.852158,346.571991 168.968506,346.563873 171.942749,346.649231 
z"/>
<path fill="#000000" opacity="1.000000" stroke="none" 
	d="
M345.679321,213.795288 
	C353.676849,219.017853 364.218048,213.324753 370.216766,207.349838 
	C374.182892,203.399475 377.635498,198.933533 381.234375,194.794540 
	C382.826996,195.351654 382.990265,196.415436 382.582458,197.352280 
	C378.170441,207.487228 372.603729,216.687302 361.520477,220.737915 
	C355.528961,222.927673 349.309052,221.421341 343.193970,221.089981 
	C338.936127,220.859238 334.932648,221.154175 331.435272,224.789764 
	C336.823517,231.029800 343.493744,233.261063 351.155365,231.501129 
	C361.514191,229.121643 370.697021,224.170349 376.446411,214.985352 
	C383.104675,204.348297 392.348450,199.982620 404.567596,200.573410 
	C411.332336,200.900482 418.154388,200.446289 426.122375,203.321457 
	C413.686066,206.110092 401.778870,203.051331 389.740173,208.740158 
	C401.805298,208.326965 412.163330,209.653702 421.934662,214.512283 
	C417.938385,216.291809 413.741364,215.508774 409.760010,214.957779 
	C405.108215,214.314011 400.485260,214.127350 395.824768,214.118011 
	C389.699432,214.105728 384.506927,216.224991 380.115204,220.579819 
	C372.402893,228.227280 363.442566,233.728394 352.748993,236.300079 
	C347.348236,237.598907 342.530518,244.107910 342.312714,249.829193 
	C342.243042,251.659180 342.351410,253.495804 342.286621,255.326141 
	C342.133392,259.655365 340.130676,263.031708 335.771973,263.522491 
	C331.685272,263.982666 329.565430,260.619904 328.426422,257.192780 
	C327.078857,253.137985 327.744232,248.970474 328.665466,244.859283 
	C328.979797,243.456558 329.961578,242.109894 329.124908,240.069885 
	C324.348480,245.314133 323.596588,251.902039 322.089294,257.989410 
	C320.117798,265.951569 319.642731,266.777588 311.374512,267.341888 
	C310.721954,267.386444 310.074524,267.567230 309.434448,267.724335 
	C303.555603,269.167328 300.380676,267.234131 299.804108,261.300476 
	C299.116730,254.226883 296.796661,247.235474 298.533356,240.002975 
	C299.035034,237.913773 297.587341,236.657425 296.315155,235.288696 
	C291.117340,229.696533 291.530731,226.343704 297.852417,222.012436 
	C301.012238,219.847519 304.160950,217.666260 307.332855,215.519211 
	C310.286713,213.519730 310.055756,211.634811 307.153778,209.858459 
	C306.308167,209.340881 305.389343,208.578049 304.493713,208.563538 
	C295.281891,208.413910 285.991821,205.475082 276.890503,209.656860 
	C272.306946,211.762863 267.324829,212.417435 262.254578,212.241623 
	C260.044556,212.165009 257.928406,211.751022 256.038361,210.622482 
	C253.539276,209.130341 252.459091,206.759857 252.363464,203.918015 
	C252.267273,201.059494 254.240021,199.724121 256.488434,198.894043 
	C269.823639,193.970840 282.556335,187.070435 297.306396,186.805389 
	C303.682953,186.690796 309.800568,184.860352 315.780518,182.774323 
	C322.270416,180.510406 328.914459,179.351944 335.738922,178.571777 
	C345.545929,177.450638 354.716797,173.631836 364.059662,170.666138 
	C379.034271,165.912811 394.747925,164.735672 409.888977,160.834000 
	C410.769897,160.606995 411.801025,160.962875 413.225464,161.088287 
	C411.273712,164.797165 407.845612,165.240982 404.883179,166.204041 
	C391.883301,170.430054 377.944672,170.494766 365.026581,175.192032 
	C355.173492,178.774796 345.273712,182.381317 334.778442,183.543060 
	C325.946381,184.520676 317.419098,186.541672 309.131012,189.656342 
	C301.927185,192.363556 294.145416,190.212967 286.913269,192.292053 
	C276.574097,195.264359 266.728363,199.526871 256.496399,203.787796 
	C258.844574,207.881363 262.018738,207.690201 265.107880,207.394440 
	C270.101318,206.916382 275.144775,206.028687 279.582550,203.819427 
	C284.592285,201.325424 289.438171,201.971024 294.378265,203.035095 
	C298.452240,203.912613 302.267761,204.116943 305.752411,201.124481 
	C316.463257,213.695374 322.494507,203.120041 329.599396,195.479462 
	C330.181671,201.321747 327.891510,204.783905 324.938049,207.941803 
	C319.273987,213.998032 311.251282,216.771805 305.074371,222.133423 
	C303.193054,223.766434 301.073181,225.123306 299.175507,226.739227 
	C297.957550,227.776337 297.336639,229.137283 298.367828,230.721771 
	C299.555817,232.547165 300.755096,231.549301 302.197845,230.944138 
	C304.236572,230.088943 305.790283,227.924728 308.506165,228.297882 
	C309.245087,231.627426 305.413330,231.457840 304.687225,233.903183 
	C309.573669,234.131577 313.633636,232.636887 316.770630,229.121841 
	C324.448486,220.518661 334.778900,216.931732 345.679321,213.795288 
M317.288666,234.986465 
	C313.418182,240.971207 313.786835,247.895813 313.237823,254.540848 
	C313.030029,257.055908 312.147736,260.120941 314.504364,262.477203 
	C316.811035,260.206421 316.594208,260.155029 317.110687,257.976501 
	C318.913269,250.373260 319.503815,242.266006 326.009674,236.560043 
	C327.653137,235.118668 328.394745,232.972977 328.656311,230.770157 
	C328.796570,229.588867 328.711456,228.399704 327.536438,227.686676 
	C326.294708,226.933167 325.266937,227.592712 324.394287,228.384247 
	C322.180603,230.392319 320.029388,232.469223 317.288666,234.986465 
M308.567413,257.543671 
	C306.549500,252.501923 308.690826,247.921997 310.068542,243.224945 
	C310.544830,241.601196 311.606628,239.334702 309.050018,238.602524 
	C306.755676,237.945465 304.417419,238.364273 303.196350,241.007523 
	C302.480133,242.558029 302.190887,244.177551 302.313477,245.840622 
	C302.617126,249.959030 302.951904,254.076904 303.386169,258.183167 
	C303.602051,260.224396 303.279663,263.215485 306.195648,263.104980 
	C308.604614,263.013672 308.435486,260.274841 308.567413,257.543671 
M337.610901,249.960373 
	C334.285889,244.026901 342.146881,241.692474 342.049683,236.814468 
	C340.537354,235.368011 338.962036,234.653915 337.082275,234.812500 
	C333.917480,239.481537 333.456299,244.822617 332.569641,250.049789 
	C332.102783,252.802017 332.428436,255.371094 334.085358,257.641663 
	C334.629059,258.386719 335.591858,258.426270 336.307068,257.797485 
	C338.533813,255.839920 337.842133,253.250931 337.610901,249.960373 
z"/>
<path fill="#000000" opacity="1.000000" stroke="none" 
	d="
M293.016785,344.963867 
	C291.574860,347.218689 288.110596,348.252686 289.681702,351.370911 
	C291.269287,354.521851 292.450775,357.966125 297.226990,358.275208 
	C303.492828,358.680695 300.597961,363.974426 301.092468,367.273560 
	C301.598022,370.646423 299.320312,371.155273 296.425537,371.433441 
	C287.185699,372.321472 280.591492,369.038300 276.795349,360.332153 
	C274.888092,355.957947 272.606110,352.140320 266.468475,353.104187 
	C263.219055,353.614502 262.149292,354.720276 262.294189,357.792480 
	C262.443115,360.949432 262.221100,364.122803 262.333405,367.282898 
	C262.440674,370.301239 261.085510,371.396423 258.142456,371.378387 
	C244.072601,371.291992 246.828690,372.588623 246.692657,360.668823 
	C246.517838,345.348572 246.815475,330.021942 246.554153,314.704163 
	C246.473404,309.970367 248.188065,308.562164 252.644928,308.810974 
	C261.276428,309.292877 269.971100,308.106140 278.570923,309.489136 
	C296.799683,312.420593 303.956573,329.656403 293.016785,344.963867 
M272.998352,339.683167 
	C279.212219,338.927948 283.007904,335.269470 282.543671,330.482910 
	C281.958710,324.451355 277.158295,322.176239 266.851868,322.282196 
	C259.964447,322.353027 262.476471,327.288635 262.436493,330.435120 
	C262.304932,340.788788 260.861664,339.611725 272.998352,339.683167 
z"/>
<path fill="#000000" opacity="1.000000" stroke="none" 
	d="
M353.414062,309.716309 
	C354.957458,324.294861 355.371704,338.700897 353.759216,352.854248 
	C352.201050,366.530975 339.873047,373.618958 323.540070,372.272888 
	C311.138336,371.250763 301.926727,361.431335 301.683105,348.522583 
	C301.463043,336.862122 301.715179,325.193268 301.569092,313.530518 
	C301.524872,309.998322 303.009796,308.967529 306.321442,308.843781 
	C317.143280,308.439545 317.135468,308.344818 317.143555,319.199066 
	C317.150482,328.531830 317.086884,337.865662 317.207977,347.197021 
	C317.304016,354.594818 321.313232,358.808533 327.960449,358.828613 
	C334.586334,358.848633 338.715973,354.594299 338.804565,347.257294 
	C338.933350,336.592682 339.009674,325.922333 338.789368,315.261017 
	C338.692261,310.562469 340.287689,308.383606 345.121979,308.880798 
	C347.754700,309.151550 350.456909,308.497437 353.414062,309.716309 
z"/>
<path fill="#000000" opacity="1.000000" stroke="none" 
	d="
M244.433868,416.396729 
	C244.974045,414.200623 244.229523,411.412811 247.003662,411.256500 
	C249.947495,411.090607 249.075806,414.118378 249.783127,415.778107 
	C250.162628,416.668610 250.238632,417.688477 250.868927,418.649658 
	C250.868927,416.937927 250.793777,415.221954 250.889328,413.515533 
	C250.991898,411.684021 252.192581,410.641083 253.893906,411.014618 
	C256.344513,411.552612 258.615112,411.811218 261.138489,411.092346 
	C262.560028,410.687378 264.779968,412.808228 263.920166,413.580475 
	C260.448914,416.698212 268.577667,423.002045 261.122864,424.051819 
	C258.201111,424.463257 254.887299,424.772369 251.807022,424.266693 
	C248.740952,423.763428 245.787552,423.696960 242.714706,424.285217 
	C239.242401,424.949982 237.295258,423.527679 237.671707,419.666656 
	C237.934235,416.974182 237.211853,414.144562 238.586960,411.126007 
	C243.019577,413.865601 239.120941,418.753296 241.962585,421.495361 
	C244.399643,420.569489 243.465515,418.233643 244.433868,416.396729 
z"/>
<path fill="#000000" opacity="1.000000" stroke="none" 
	d="
M176.628403,186.862091 
	C177.448135,188.875122 177.419464,190.443115 175.448593,191.180801 
	C174.177124,191.656693 172.829956,191.561005 171.982910,190.267548 
	C171.183945,189.047470 171.295013,187.670685 172.195770,186.637421 
	C173.467331,185.178833 174.990402,185.197006 176.628403,186.862091 
z"/>
</svg>